<svg xmlns="http://www.w3.org/2000/svg" xmlns:xlink="http://www.w3.org/1999/xlink" viewBox="0,0,256,256" width="24px" height="24px" fill-rule="nonzero"><g fill="#ffa500" fill-rule="nonzero" stroke="none" stroke-width="1" stroke-linecap="butt" stroke-linejoin="miter" stroke-miterlimit="10" stroke-dasharray="" stroke-dashoffset="0" font-family="none" font-weight="none" font-size="none" text-anchor="none" style="mix-blend-mode: normal"><g transform="scale(5.12,5.12)"><path d="M30.14063,2c-3.27025,0 -6.09523,0.99694 -8.07812,2.9668c-1.9829,1.96986 -3.0625,4.85703 -3.0625,8.40039v4.63281h-6c-0.55226,0.00006 -0.99994,0.44774 -1,1v8c0.00006,0.55226 0.44774,0.99994 1,1h6v19c0.00006,0.55226 0.44774,0.99994 1,1h8c0.55226,-0.00006 0.99994,-0.44774 1,-1v-19h7c0.50395,-0.00003 0.92915,-0.37501 0.99219,-0.875l1,-8c0.03584,-0.28475 -0.05237,-0.57117 -0.24221,-0.78642c-0.18983,-0.21524 -0.46299,-0.33856 -0.74998,-0.33858h-8v-4c0,-1.11667 0.88333,-2 2,-2h6c0.55226,-0.00006 0.99994,-0.44774 1,-1v-7.6543c-0.00063,-0.50124 -0.37221,-0.9246 -0.86914,-0.99023c-0.88367,-0.11725 -4.07368,-0.35547 -6.99023,-0.35547zM30.14063,4c2.43785,0 4.79448,0.19505 5.85938,0.29492v5.70508h-5c-2.19733,0 -4,1.80267 -4,4v5c0.00006,0.55226 0.44774,0.99994 1,1h7.86719l-0.75,6h-7.11719c-0.55226,0.00006 -0.99994,0.44774 -1,1v19h-6v-19c-0.00006,-0.55226 -0.44774,-0.99994 -1,-1h-6v-6h6c0.55226,-0.00006 0.99994,-0.44774 1,-1v-5.63281c0,-3.14464 0.9203,-5.44028 2.47266,-6.98242c1.55235,-1.54214 3.79722,-2.38477 6.66797,-2.38477z"></path></g></g></svg>